<svg xmlns="http://www.w3.org/2000/svg" viewBox="0 0 120 120" role="img" aria-label="Perps mark">
  <defs>
    <linearGradient id="pg" x1="0" y1="0" x2="1" y2="1">
      <stop offset="0" stop-color="#ffd36f"/>
      <stop offset="1" stop-color="#ff8e31"/>
    </linearGradient>
  </defs>
  <rect width="120" height="120" rx="24" fill="#1a1306"/>
  <path d="M25 90V30h12v49h18v11H25zm37 0V30h12v60H62zm18 0V79h16c8 0 12-4 12-10s-4-10-12-10H80V30h19c16 0 25 8 25 21 0 8-4 14-11 18 7 4 11 10 11 18 0 14-10 23-26 23H80z" fill="url(#pg)"/>
</svg>
